# xmcd CD database file
#
# Track frame offsets:
#	150
#	9303
#	23377
#	37283
#	51581
#	65904
#	80853
#	93669
#	106164
#	120465
#	135407
#
# Disc length: 1932 seconds
#
# Revision: 0
# Processed by: cddbd v1.4PL0 Copyright (c) Steve Scherf et al.
# Submitted via: CDex 1.50beta9
#
DISCID=93078a0b
DTITLE=Esther Phillips - The Country Side of Esther Phillips
DYEAR=1966
DGENRE=Jazz
TTITLE0=I Really Don't Want to Know
TTITLE1=Just Out of Reach
TTITLE2=I Can't Help It
TTITLE3=Be Honest with Me
TTITLE4=I've Forgotten More Than You'll Ever Know About Him
TTITLE5=Release Me
TTITLE6=I'd Fight The World
TTITLE7=Am I That Easy to Forget
TTITLE8=After Loving You
TTITLE9=No Headstone On My Grave
TTITLE10=Why Should We Try Anymore
EXTD=YEAR: 1966
EXTT0=
EXTT1=
EXTT2=
EXTT3=
EXTT4=
EXTT5=
EXTT6=
EXTT7=
EXTT8=
EXTT9=
EXTT10=
PLAYORDER=
